<?xml version="1.0" encoding="UTF-8"?>
<svg xmlns="http://www.w3.org/2000/svg" viewBox="74.5 -5.2 282.5 130.5" role="img" aria-label="COIN COIN BLÉ"><title>COIN COIN BLÉ</title><style>@keyframes ccb-quack{0%,82%,100%{transform:translateY(0)}86%{transform:translateY(-6px)}92%{transform:translateY(0)}}@keyframes ccb-beak{0%,82%,100%{transform:scaleY(1)}86%{transform:scaleY(.5)}92%{transform:scaleY(1)}}@keyframes ccb-sway{0%,100%{transform:rotate(-2deg)}50%{transform:rotate(2deg)}}.ccb-duck{animation:ccb-quack 3.2s ease-in-out infinite}.ccb-beak{animation:ccb-beak 3.2s ease-in-out infinite;transform-box:fill-box;transform-origin:left center}.ccb-epi{animation:ccb-sway 2.8s ease-in-out infinite;transform-box:fill-box;transform-origin:bottom center}@media (prefers-reduced-motion:reduce){.ccb-duck,.ccb-beak,.ccb-epi{animation:none}}</style><g fill="none" stroke="#fff7e6" stroke-width="6" stroke-linejoin="round"><path transform="translate(83.24,54.00) scale(0.04800,-0.04800)" d="M386 710Q511 710 600.0 644.0Q689 578 719 464H531Q510 508 471.5 531.0Q433 554 384 554Q305 554 256.0 499.0Q207 444 207 352Q207 260 256.0 205.0Q305 150 384 150Q433 150 471.5 173.0Q510 196 531 240H719Q689 126 600.0 60.5Q511 -5 386 -5Q284 -5 203.5 40.5Q123 86 78.0 167.0Q33 248 33 352Q33 456 78.0 537.5Q123 619 203.5 664.5Q284 710 386 710Z"/>
<path transform="translate(119.82,54.00) scale(0.04800,-0.04800)" d="M33 353Q33 456 81.5 538.0Q130 620 212.5 666.0Q295 712 394 712Q493 712 575.5 666.0Q658 620 705.5 538.0Q753 456 753 353Q753 250 705.0 167.5Q657 85 575.0 39.0Q493 -7 394 -7Q295 -7 212.5 39.0Q130 85 81.5 167.5Q33 250 33 353ZM579 353Q579 446 528.5 501.5Q478 557 394 557Q309 557 258.5 502.0Q208 447 208 353Q208 260 258.5 204.5Q309 149 394 149Q478 149 528.5 205.0Q579 261 579 353Z"/>
<path transform="translate(171.70,54.00) scale(0.04800,-0.04800)" d="M690 0H519L233 433V0H62V702H233L519 267V702H690Z"/>
<path transform="translate(222.20,54.00) scale(0.04800,-0.04800)" d="M386 710Q511 710 600.0 644.0Q689 578 719 464H531Q510 508 471.5 531.0Q433 554 384 554Q305 554 256.0 499.0Q207 444 207 352Q207 260 256.0 205.0Q305 150 384 150Q433 150 471.5 173.0Q510 196 531 240H719Q689 126 600.0 60.5Q511 -5 386 -5Q284 -5 203.5 40.5Q123 86 78.0 167.0Q33 248 33 352Q33 456 78.0 537.5Q123 619 203.5 664.5Q284 710 386 710Z"/>
<path transform="translate(258.78,54.00) scale(0.04800,-0.04800)" d="M33 353Q33 456 81.5 538.0Q130 620 212.5 666.0Q295 712 394 712Q493 712 575.5 666.0Q658 620 705.5 538.0Q753 456 753 353Q753 250 705.0 167.5Q657 85 575.0 39.0Q493 -7 394 -7Q295 -7 212.5 39.0Q130 85 81.5 167.5Q33 250 33 353ZM579 353Q579 446 528.5 501.5Q478 557 394 557Q309 557 258.5 502.0Q208 447 208 353Q208 260 258.5 204.5Q309 149 394 149Q478 149 528.5 205.0Q579 261 579 353Z"/>
<path transform="translate(310.66,54.00) scale(0.04800,-0.04800)" d="M690 0H519L233 433V0H62V702H233L519 267V702H690Z"/></g><g transform="translate(3.4,3.4)" fill="#5c3414"><path transform="translate(83.24,54.00) scale(0.04800,-0.04800)" d="M386 710Q511 710 600.0 644.0Q689 578 719 464H531Q510 508 471.5 531.0Q433 554 384 554Q305 554 256.0 499.0Q207 444 207 352Q207 260 256.0 205.0Q305 150 384 150Q433 150 471.5 173.0Q510 196 531 240H719Q689 126 600.0 60.5Q511 -5 386 -5Q284 -5 203.5 40.5Q123 86 78.0 167.0Q33 248 33 352Q33 456 78.0 537.5Q123 619 203.5 664.5Q284 710 386 710Z"/>
<path transform="translate(119.82,54.00) scale(0.04800,-0.04800)" d="M33 353Q33 456 81.5 538.0Q130 620 212.5 666.0Q295 712 394 712Q493 712 575.5 666.0Q658 620 705.5 538.0Q753 456 753 353Q753 250 705.0 167.5Q657 85 575.0 39.0Q493 -7 394 -7Q295 -7 212.5 39.0Q130 85 81.5 167.5Q33 250 33 353ZM579 353Q579 446 528.5 501.5Q478 557 394 557Q309 557 258.5 502.0Q208 447 208 353Q208 260 258.5 204.5Q309 149 394 149Q478 149 528.5 205.0Q579 261 579 353Z"/>
<path transform="translate(171.70,54.00) scale(0.04800,-0.04800)" d="M690 0H519L233 433V0H62V702H233L519 267V702H690Z"/>
<path transform="translate(222.20,54.00) scale(0.04800,-0.04800)" d="M386 710Q511 710 600.0 644.0Q689 578 719 464H531Q510 508 471.5 531.0Q433 554 384 554Q305 554 256.0 499.0Q207 444 207 352Q207 260 256.0 205.0Q305 150 384 150Q433 150 471.5 173.0Q510 196 531 240H719Q689 126 600.0 60.5Q511 -5 386 -5Q284 -5 203.5 40.5Q123 86 78.0 167.0Q33 248 33 352Q33 456 78.0 537.5Q123 619 203.5 664.5Q284 710 386 710Z"/>
<path transform="translate(258.78,54.00) scale(0.04800,-0.04800)" d="M33 353Q33 456 81.5 538.0Q130 620 212.5 666.0Q295 712 394 712Q493 712 575.5 666.0Q658 620 705.5 538.0Q753 456 753 353Q753 250 705.0 167.5Q657 85 575.0 39.0Q493 -7 394 -7Q295 -7 212.5 39.0Q130 85 81.5 167.5Q33 250 33 353ZM579 353Q579 446 528.5 501.5Q478 557 394 557Q309 557 258.5 502.0Q208 447 208 353Q208 260 258.5 204.5Q309 149 394 149Q478 149 528.5 205.0Q579 261 579 353Z"/>
<path transform="translate(310.66,54.00) scale(0.04800,-0.04800)" d="M690 0H519L233 433V0H62V702H233L519 267V702H690Z"/></g><g fill="none" stroke="#5c3414" stroke-width="3" stroke-linejoin="round"><path transform="translate(83.24,54.00) scale(0.04800,-0.04800)" d="M386 710Q511 710 600.0 644.0Q689 578 719 464H531Q510 508 471.5 531.0Q433 554 384 554Q305 554 256.0 499.0Q207 444 207 352Q207 260 256.0 205.0Q305 150 384 150Q433 150 471.5 173.0Q510 196 531 240H719Q689 126 600.0 60.5Q511 -5 386 -5Q284 -5 203.5 40.5Q123 86 78.0 167.0Q33 248 33 352Q33 456 78.0 537.5Q123 619 203.5 664.5Q284 710 386 710Z"/>
<path transform="translate(119.82,54.00) scale(0.04800,-0.04800)" d="M33 353Q33 456 81.5 538.0Q130 620 212.5 666.0Q295 712 394 712Q493 712 575.5 666.0Q658 620 705.5 538.0Q753 456 753 353Q753 250 705.0 167.5Q657 85 575.0 39.0Q493 -7 394 -7Q295 -7 212.5 39.0Q130 85 81.5 167.5Q33 250 33 353ZM579 353Q579 446 528.5 501.5Q478 557 394 557Q309 557 258.5 502.0Q208 447 208 353Q208 260 258.5 204.5Q309 149 394 149Q478 149 528.5 205.0Q579 261 579 353Z"/>
<path transform="translate(171.70,54.00) scale(0.04800,-0.04800)" d="M690 0H519L233 433V0H62V702H233L519 267V702H690Z"/>
<path transform="translate(222.20,54.00) scale(0.04800,-0.04800)" d="M386 710Q511 710 600.0 644.0Q689 578 719 464H531Q510 508 471.5 531.0Q433 554 384 554Q305 554 256.0 499.0Q207 444 207 352Q207 260 256.0 205.0Q305 150 384 150Q433 150 471.5 173.0Q510 196 531 240H719Q689 126 600.0 60.5Q511 -5 386 -5Q284 -5 203.5 40.5Q123 86 78.0 167.0Q33 248 33 352Q33 456 78.0 537.5Q123 619 203.5 664.5Q284 710 386 710Z"/>
<path transform="translate(258.78,54.00) scale(0.04800,-0.04800)" d="M33 353Q33 456 81.5 538.0Q130 620 212.5 666.0Q295 712 394 712Q493 712 575.5 666.0Q658 620 705.5 538.0Q753 456 753 353Q753 250 705.0 167.5Q657 85 575.0 39.0Q493 -7 394 -7Q295 -7 212.5 39.0Q130 85 81.5 167.5Q33 250 33 353ZM579 353Q579 446 528.5 501.5Q478 557 394 557Q309 557 258.5 502.0Q208 447 208 353Q208 260 258.5 204.5Q309 149 394 149Q478 149 528.5 205.0Q579 261 579 353Z"/>
<path transform="translate(310.66,54.00) scale(0.04800,-0.04800)" d="M690 0H519L233 433V0H62V702H233L519 267V702H690Z"/></g><g fill="#ffcc33"><path transform="translate(83.24,54.00) scale(0.04800,-0.04800)" d="M386 710Q511 710 600.0 644.0Q689 578 719 464H531Q510 508 471.5 531.0Q433 554 384 554Q305 554 256.0 499.0Q207 444 207 352Q207 260 256.0 205.0Q305 150 384 150Q433 150 471.5 173.0Q510 196 531 240H719Q689 126 600.0 60.5Q511 -5 386 -5Q284 -5 203.5 40.5Q123 86 78.0 167.0Q33 248 33 352Q33 456 78.0 537.5Q123 619 203.5 664.5Q284 710 386 710Z"/>
<path transform="translate(119.82,54.00) scale(0.04800,-0.04800)" d="M33 353Q33 456 81.5 538.0Q130 620 212.5 666.0Q295 712 394 712Q493 712 575.5 666.0Q658 620 705.5 538.0Q753 456 753 353Q753 250 705.0 167.5Q657 85 575.0 39.0Q493 -7 394 -7Q295 -7 212.5 39.0Q130 85 81.5 167.5Q33 250 33 353ZM579 353Q579 446 528.5 501.5Q478 557 394 557Q309 557 258.5 502.0Q208 447 208 353Q208 260 258.5 204.5Q309 149 394 149Q478 149 528.5 205.0Q579 261 579 353Z"/>
<path transform="translate(171.70,54.00) scale(0.04800,-0.04800)" d="M690 0H519L233 433V0H62V702H233L519 267V702H690Z"/>
<path transform="translate(222.20,54.00) scale(0.04800,-0.04800)" d="M386 710Q511 710 600.0 644.0Q689 578 719 464H531Q510 508 471.5 531.0Q433 554 384 554Q305 554 256.0 499.0Q207 444 207 352Q207 260 256.0 205.0Q305 150 384 150Q433 150 471.5 173.0Q510 196 531 240H719Q689 126 600.0 60.5Q511 -5 386 -5Q284 -5 203.5 40.5Q123 86 78.0 167.0Q33 248 33 352Q33 456 78.0 537.5Q123 619 203.5 664.5Q284 710 386 710Z"/>
<path transform="translate(258.78,54.00) scale(0.04800,-0.04800)" d="M33 353Q33 456 81.5 538.0Q130 620 212.5 666.0Q295 712 394 712Q493 712 575.5 666.0Q658 620 705.5 538.0Q753 456 753 353Q753 250 705.0 167.5Q657 85 575.0 39.0Q493 -7 394 -7Q295 -7 212.5 39.0Q130 85 81.5 167.5Q33 250 33 353ZM579 353Q579 446 528.5 501.5Q478 557 394 557Q309 557 258.5 502.0Q208 447 208 353Q208 260 258.5 204.5Q309 149 394 149Q478 149 528.5 205.0Q579 261 579 353Z"/>
<path transform="translate(310.66,54.00) scale(0.04800,-0.04800)" d="M690 0H519L233 433V0H62V702H233L519 267V702H690Z"/></g><g class="ccb-epi"><g stroke="#e0a800" stroke-width="1.2" stroke-linecap="round"><line x1="163.0" y1="21.400000000000006" x2="160.1" y2="8.400000000000006"/><line x1="164.0" y1="21.400000000000006" x2="162.6" y2="5.400000000000006"/><line x1="165.2" y1="21.400000000000006" x2="166.6" y2="5.400000000000006"/><line x1="166.2" y1="21.400000000000006" x2="169.1" y2="8.400000000000006"/></g><line x1="164.62400000000002" y1="54" x2="164.62400000000002" y2="39.0" stroke="#7a4a1e" stroke-width="2.4" stroke-linecap="round"/><line x1="164.62400000000002" y1="39.8" x2="164.62400000000002" y2="21.400000000000006" stroke="#e0a800" stroke-width="1.5"/><g transform="translate(163.22400000000002,39.8) rotate(-30)"><ellipse cx="-1.7" cy="0" rx="2.9" ry="4.6" fill="#ffcc33" stroke="#5c3414" stroke-width="1.1"/><ellipse cx="-1.7" cy="-1" rx="1.4" ry="2.3" fill="#ffe07a"/></g><g transform="translate(166.02400000000003,39.8) rotate(30)"><ellipse cx="1.7" cy="0" rx="2.9" ry="4.6" fill="#ffcc33" stroke="#5c3414" stroke-width="1.1"/><ellipse cx="1.7" cy="-1" rx="1.4" ry="2.3" fill="#ffe07a"/></g><g transform="translate(163.22400000000002,35.2) rotate(-30)"><ellipse cx="-1.7" cy="0" rx="2.9" ry="4.6" fill="#ffcc33" stroke="#5c3414" stroke-width="1.1"/><ellipse cx="-1.7" cy="-1" rx="1.4" ry="2.3" fill="#ffe07a"/></g><g transform="translate(166.02400000000003,35.2) rotate(30)"><ellipse cx="1.7" cy="0" rx="2.9" ry="4.6" fill="#ffcc33" stroke="#5c3414" stroke-width="1.1"/><ellipse cx="1.7" cy="-1" rx="1.4" ry="2.3" fill="#ffe07a"/></g><g transform="translate(163.22400000000002,30.6) rotate(-30)"><ellipse cx="-1.7" cy="0" rx="2.9" ry="4.6" fill="#ffcc33" stroke="#5c3414" stroke-width="1.1"/><ellipse cx="-1.7" cy="-1" rx="1.4" ry="2.3" fill="#ffe07a"/></g><g transform="translate(166.02400000000003,30.6) rotate(30)"><ellipse cx="1.7" cy="0" rx="2.9" ry="4.6" fill="#ffcc33" stroke="#5c3414" stroke-width="1.1"/><ellipse cx="1.7" cy="-1" rx="1.4" ry="2.3" fill="#ffe07a"/></g><g transform="translate(163.22400000000002,26.0) rotate(-30)"><ellipse cx="-1.7" cy="0" rx="2.9" ry="4.6" fill="#ffcc33" stroke="#5c3414" stroke-width="1.1"/><ellipse cx="-1.7" cy="-1" rx="1.4" ry="2.3" fill="#ffe07a"/></g><g transform="translate(166.02400000000003,26.0) rotate(30)"><ellipse cx="1.7" cy="0" rx="2.9" ry="4.6" fill="#ffcc33" stroke="#5c3414" stroke-width="1.1"/><ellipse cx="1.7" cy="-1" rx="1.4" ry="2.3" fill="#ffe07a"/></g><g transform="translate(163.22400000000002,21.4) rotate(-30)"><ellipse cx="-1.7" cy="0" rx="2.9" ry="4.6" fill="#ffcc33" stroke="#5c3414" stroke-width="1.1"/><ellipse cx="-1.7" cy="-1" rx="1.4" ry="2.3" fill="#ffe07a"/></g><g transform="translate(166.02400000000003,21.4) rotate(30)"><ellipse cx="1.7" cy="0" rx="2.9" ry="4.6" fill="#ffcc33" stroke="#5c3414" stroke-width="1.1"/><ellipse cx="1.7" cy="-1" rx="1.4" ry="2.3" fill="#ffe07a"/></g><ellipse cx="164.62400000000002" cy="20.400000000000006" rx="2.8" ry="5.4" fill="#ffcc33" stroke="#5c3414" stroke-width="1.1"/><ellipse cx="164.62400000000002" cy="19.200000000000006" rx="1.4" ry="2.8" fill="#ffe07a"/></g><g class="ccb-epi"><g stroke="#e0a800" stroke-width="1.2" stroke-linecap="round"><line x1="302.0" y1="21.400000000000006" x2="299.1" y2="8.400000000000006"/><line x1="303.0" y1="21.400000000000006" x2="301.6" y2="5.400000000000006"/><line x1="304.2" y1="21.400000000000006" x2="305.6" y2="5.400000000000006"/><line x1="305.2" y1="21.400000000000006" x2="308.1" y2="8.400000000000006"/></g><line x1="303.584" y1="54" x2="303.584" y2="39.0" stroke="#7a4a1e" stroke-width="2.4" stroke-linecap="round"/><line x1="303.584" y1="39.8" x2="303.584" y2="21.400000000000006" stroke="#e0a800" stroke-width="1.5"/><g transform="translate(302.184,39.8) rotate(-30)"><ellipse cx="-1.7" cy="0" rx="2.9" ry="4.6" fill="#ffcc33" stroke="#5c3414" stroke-width="1.1"/><ellipse cx="-1.7" cy="-1" rx="1.4" ry="2.3" fill="#ffe07a"/></g><g transform="translate(304.984,39.8) rotate(30)"><ellipse cx="1.7" cy="0" rx="2.9" ry="4.6" fill="#ffcc33" stroke="#5c3414" stroke-width="1.1"/><ellipse cx="1.7" cy="-1" rx="1.4" ry="2.3" fill="#ffe07a"/></g><g transform="translate(302.184,35.2) rotate(-30)"><ellipse cx="-1.7" cy="0" rx="2.9" ry="4.6" fill="#ffcc33" stroke="#5c3414" stroke-width="1.1"/><ellipse cx="-1.7" cy="-1" rx="1.4" ry="2.3" fill="#ffe07a"/></g><g transform="translate(304.984,35.2) rotate(30)"><ellipse cx="1.7" cy="0" rx="2.9" ry="4.6" fill="#ffcc33" stroke="#5c3414" stroke-width="1.1"/><ellipse cx="1.7" cy="-1" rx="1.4" ry="2.3" fill="#ffe07a"/></g><g transform="translate(302.184,30.6) rotate(-30)"><ellipse cx="-1.7" cy="0" rx="2.9" ry="4.6" fill="#ffcc33" stroke="#5c3414" stroke-width="1.1"/><ellipse cx="-1.7" cy="-1" rx="1.4" ry="2.3" fill="#ffe07a"/></g><g transform="translate(304.984,30.6) rotate(30)"><ellipse cx="1.7" cy="0" rx="2.9" ry="4.6" fill="#ffcc33" stroke="#5c3414" stroke-width="1.1"/><ellipse cx="1.7" cy="-1" rx="1.4" ry="2.3" fill="#ffe07a"/></g><g transform="translate(302.184,26.0) rotate(-30)"><ellipse cx="-1.7" cy="0" rx="2.9" ry="4.6" fill="#ffcc33" stroke="#5c3414" stroke-width="1.1"/><ellipse cx="-1.7" cy="-1" rx="1.4" ry="2.3" fill="#ffe07a"/></g><g transform="translate(304.984,26.0) rotate(30)"><ellipse cx="1.7" cy="0" rx="2.9" ry="4.6" fill="#ffcc33" stroke="#5c3414" stroke-width="1.1"/><ellipse cx="1.7" cy="-1" rx="1.4" ry="2.3" fill="#ffe07a"/></g><g transform="translate(302.184,21.4) rotate(-30)"><ellipse cx="-1.7" cy="0" rx="2.9" ry="4.6" fill="#ffcc33" stroke="#5c3414" stroke-width="1.1"/><ellipse cx="-1.7" cy="-1" rx="1.4" ry="2.3" fill="#ffe07a"/></g><g transform="translate(304.984,21.4) rotate(30)"><ellipse cx="1.7" cy="0" rx="2.9" ry="4.6" fill="#ffcc33" stroke="#5c3414" stroke-width="1.1"/><ellipse cx="1.7" cy="-1" rx="1.4" ry="2.3" fill="#ffe07a"/></g><ellipse cx="303.584" cy="20.400000000000006" rx="2.8" ry="5.4" fill="#ffcc33" stroke="#5c3414" stroke-width="1.1"/><ellipse cx="303.584" cy="19.200000000000006" rx="1.4" ry="2.8" fill="#ffe07a"/></g><g fill="none" stroke="#fff7e6" stroke-width="6" stroke-linejoin="round"><path transform="translate(160.45,110.00) scale(0.04800,-0.04800)" d="M622 191Q622 103 560.5 51.5Q499 0 389 0H62V702H378Q485 702 545.5 653.0Q606 604 606 520Q606 458 573.5 417.0Q541 376 487 360Q548 347 585.0 299.5Q622 252 622 191ZM233 418H345Q387 418 409.5 436.5Q432 455 432 491Q432 527 409.5 546.0Q387 565 345 565H233ZM449 214Q449 251 424.5 272.0Q400 293 357 293H233V138H359Q402 138 425.5 157.5Q449 177 449 214Z"/>
<path transform="translate(192.08,110.00) scale(0.04800,-0.04800)" d="M233 132H457V0H62V702H233Z"/>
<path transform="translate(214.98,110.00) scale(0.04800,-0.04800)" d="M233 565V423H462V291H233V137H492V0H62V702H492V565ZM389 843 148 742V860L389 976Z"/></g><g transform="translate(3.4,3.4)" fill="#5c3414"><path transform="translate(160.45,110.00) scale(0.04800,-0.04800)" d="M622 191Q622 103 560.5 51.5Q499 0 389 0H62V702H378Q485 702 545.5 653.0Q606 604 606 520Q606 458 573.5 417.0Q541 376 487 360Q548 347 585.0 299.5Q622 252 622 191ZM233 418H345Q387 418 409.5 436.5Q432 455 432 491Q432 527 409.5 546.0Q387 565 345 565H233ZM449 214Q449 251 424.5 272.0Q400 293 357 293H233V138H359Q402 138 425.5 157.5Q449 177 449 214Z"/>
<path transform="translate(192.08,110.00) scale(0.04800,-0.04800)" d="M233 132H457V0H62V702H233Z"/>
<path transform="translate(214.98,110.00) scale(0.04800,-0.04800)" d="M233 565V423H462V291H233V137H492V0H62V702H492V565ZM389 843 148 742V860L389 976Z"/></g><g fill="none" stroke="#5c3414" stroke-width="3" stroke-linejoin="round"><path transform="translate(160.45,110.00) scale(0.04800,-0.04800)" d="M622 191Q622 103 560.5 51.5Q499 0 389 0H62V702H378Q485 702 545.5 653.0Q606 604 606 520Q606 458 573.5 417.0Q541 376 487 360Q548 347 585.0 299.5Q622 252 622 191ZM233 418H345Q387 418 409.5 436.5Q432 455 432 491Q432 527 409.5 546.0Q387 565 345 565H233ZM449 214Q449 251 424.5 272.0Q400 293 357 293H233V138H359Q402 138 425.5 157.5Q449 177 449 214Z"/>
<path transform="translate(192.08,110.00) scale(0.04800,-0.04800)" d="M233 132H457V0H62V702H233Z"/>
<path transform="translate(214.98,110.00) scale(0.04800,-0.04800)" d="M233 565V423H462V291H233V137H492V0H62V702H492V565ZM389 843 148 742V860L389 976Z"/></g><g fill="#ffcc33"><path transform="translate(160.45,110.00) scale(0.04800,-0.04800)" d="M622 191Q622 103 560.5 51.5Q499 0 389 0H62V702H378Q485 702 545.5 653.0Q606 604 606 520Q606 458 573.5 417.0Q541 376 487 360Q548 347 585.0 299.5Q622 252 622 191ZM233 418H345Q387 418 409.5 436.5Q432 455 432 491Q432 527 409.5 546.0Q387 565 345 565H233ZM449 214Q449 251 424.5 272.0Q400 293 357 293H233V138H359Q402 138 425.5 157.5Q449 177 449 214Z"/>
<path transform="translate(192.08,110.00) scale(0.04800,-0.04800)" d="M233 132H457V0H62V702H233Z"/>
<path transform="translate(214.98,110.00) scale(0.04800,-0.04800)" d="M233 565V423H462V291H233V137H492V0H62V702H492V565ZM389 843 148 742V860L389 976Z"/></g><g transform="translate(270.7,70) scale(0.95)"><g class="ccb-duck"><ellipse cx="22" cy="28" rx="23.4" ry="17.3" fill="none" stroke="#fff7e6" stroke-width="5"/><ellipse cx="22" cy="28" rx="23.4" ry="17.3" fill="#ffcc33"/><ellipse cx="22" cy="28" rx="23.4" ry="17.3" fill="none" stroke="#5c3414" stroke-width="2.5"/><circle cx="22" cy="12" r="13.4" fill="none" stroke="#fff7e6" stroke-width="5"/><circle cx="22" cy="12" r="13.4" fill="#ffcc33" stroke="#5c3414" stroke-width="2.5"/><path class="ccb-beak" d="M34 10 q11 -3 12 3 q-6 4 -12 2 z" fill="#e0a800" stroke="#5c3414" stroke-width="2"/><circle cx="26" cy="9" r="2.4" fill="#241a10"/></g></g></svg>